<svg xmlns="http://www.w3.org/2000/svg" version="1.2" viewBox="0 0 144 46" width="144" height="46">
	<defs>
		<clipPath clipPathUnits="userSpaceOnUse" id="cp1">
			<path d="m0 0h141v46h-141z"/>
		</clipPath>
	</defs>
	<style>
		.s0 { fill: #ffffff } 
		.s1 { fill: #1b4b9d } 
	</style>
	<path class="s0" d="m48.25 40v-5.72h-2.21v-0.58h5.09v0.58h-2.21v5.72zm5.33-0.58h3.78v0.58h-4.45v-6.3h4.32v0.58h-3.65zm-0.08-2.91h3.33v0.57h-3.33zm8.87 3.53q-0.71 0-1.32-0.23-0.6-0.24-1.04-0.68-0.44-0.43-0.69-1.01-0.25-0.59-0.25-1.28 0-0.69 0.25-1.28 0.25-0.58 0.69-1.02 0.45-0.43 1.05-0.66 0.61-0.25 1.32-0.24 0.68 0 1.28 0.23 0.61 0.22 1.02 0.68l-0.42 0.43q-0.39-0.4-0.86-0.57-0.46-0.18-1-0.18-0.57 0-1.06 0.2-0.48 0.19-0.84 0.55-0.36 0.35-0.57 0.82-0.2 0.47-0.2 1.04 0 0.57 0.2 1.04 0.21 0.47 0.57 0.83 0.36 0.35 0.84 0.55 0.49 0.19 1.06 0.19 0.54 0 1-0.18 0.47-0.18 0.86-0.58l0.42 0.43q-0.41 0.46-1.02 0.69-0.6 0.23-1.29 0.23zm9.06-6.35h0.66v6.3h-0.66zm-3.94 6.3h-0.67v-6.3h0.67zm4-2.91h-4.07v-0.58h4.07zm3.37 2.9v-6.3h0.55l4.35 5.48h-0.29v-5.48h0.66v6.3h-0.55l-4.34-5.47h0.29v5.47zm10.79 0.06q-0.71 0-1.32-0.24-0.6-0.24-1.05-0.67-0.44-0.44-0.69-1.02-0.25-0.58-0.25-1.28 0-0.69 0.25-1.26 0.25-0.59 0.69-1.02 0.45-0.44 1.05-0.68 0.6-0.24 1.32-0.24 0.72 0 1.32 0.24 0.6 0.24 1.04 0.67 0.45 0.43 0.7 1.02 0.25 0.58 0.25 1.27 0 0.7-0.25 1.28-0.25 0.59-0.7 1.02-0.44 0.43-1.04 0.67-0.6 0.24-1.32 0.24zm0-0.6q0.57 0 1.05-0.18 0.48-0.2 0.84-0.55 0.36-0.36 0.55-0.83 0.2-0.48 0.2-1.05 0-0.56-0.2-1.03-0.19-0.48-0.55-0.83-0.36-0.36-0.84-0.55-0.48-0.2-1.05-0.2-0.56 0-1.05 0.2-0.48 0.19-0.84 0.55-0.36 0.35-0.56 0.83-0.2 0.47-0.2 1.03 0 0.56 0.2 1.04 0.2 0.48 0.56 0.84 0.36 0.35 0.84 0.55 0.49 0.18 1.05 0.18zm5.52 0.54v-6.3h0.67v5.73h3.52v0.57zm8.65 0.06q-0.71 0-1.32-0.24-0.6-0.24-1.05-0.67-0.44-0.44-0.69-1.02-0.25-0.58-0.25-1.28 0-0.69 0.25-1.26 0.25-0.59 0.69-1.02 0.45-0.44 1.05-0.68 0.6-0.24 1.32-0.24 0.72 0 1.32 0.24 0.6 0.24 1.04 0.67 0.45 0.43 0.7 1.02 0.25 0.58 0.25 1.27 0 0.7-0.25 1.28-0.25 0.59-0.7 1.02-0.44 0.43-1.04 0.67-0.6 0.24-1.32 0.24zm0-0.6q0.57 0 1.05-0.18 0.49-0.2 0.84-0.55 0.36-0.36 0.55-0.83 0.2-0.48 0.2-1.05 0-0.56-0.2-1.03-0.19-0.48-0.55-0.83-0.35-0.36-0.84-0.55-0.48-0.2-1.05-0.2-0.56 0-1.05 0.2-0.48 0.19-0.84 0.55-0.36 0.35-0.56 0.83-0.2 0.47-0.2 1.03 0 0.56 0.2 1.04 0.2 0.48 0.56 0.84 0.36 0.35 0.84 0.55 0.49 0.18 1.05 0.18zm8.28 0.6q-0.72 0-1.33-0.24-0.6-0.24-1.05-0.67-0.44-0.43-0.69-1.02-0.25-0.58-0.25-1.28 0-0.69 0.25-1.27 0.25-0.59 0.7-1.02 0.45-0.43 1.05-0.67 0.61-0.24 1.33-0.24 0.72 0 1.32 0.23 0.6 0.22 1.02 0.68l-0.41 0.42q-0.4-0.39-0.87-0.56-0.48-0.18-1.03-0.18-0.59 0-1.08 0.2-0.49 0.19-0.85 0.55-0.36 0.35-0.57 0.83-0.2 0.47-0.2 1.03 0 0.56 0.2 1.04 0.21 0.48 0.57 0.84 0.36 0.35 0.85 0.55 0.5 0.18 1.07 0.18 0.54 0 1.02-0.16 0.48-0.16 0.89-0.55l0.38 0.51q-0.45 0.39-1.06 0.6-0.6 0.2-1.26 0.2zm1.68-0.88v-2.33h0.64v2.41zm4.74 0.83v-2.34l0.16 0.41-2.68-4.37h0.72l2.34 3.84h-0.37l2.35-3.84h0.66l-2.67 4.37 0.15-0.41v2.34zm8.01 0v-6.3h0.66v6.3zm3.44 0v-6.3h0.55l4.34 5.47h-0.28v-5.47h0.65v6.3h-0.55l-4.33-5.48h0.28v5.48zm10.78 0.05q-0.71 0-1.31-0.23-0.61-0.25-1.05-0.68-0.44-0.43-0.69-1.02-0.24-0.58-0.24-1.27 0-0.7 0.24-1.28 0.25-0.59 0.69-1.02 0.45-0.43 1.06-0.67 0.6-0.24 1.31-0.24 0.68 0 1.29 0.24 0.6 0.22 1.01 0.68l-0.42 0.42q-0.39-0.39-0.85-0.56-0.47-0.18-1.01-0.18-0.57 0-1.05 0.19-0.49 0.19-0.85 0.55-0.36 0.35-0.57 0.83-0.2 0.47-0.2 1.04 0 0.56 0.2 1.04 0.21 0.47 0.57 0.83 0.36 0.35 0.85 0.55 0.48 0.18 1.05 0.19 0.54-0.01 1.01-0.18 0.46-0.18 0.85-0.58l0.42 0.42q-0.41 0.46-1.01 0.7-0.61 0.23-1.3 0.23zm4.51-0.01q-0.2 0-0.35-0.14-0.13-0.15-0.13-0.35 0-0.22 0.13-0.36 0.15-0.13 0.35-0.13 0.19 0 0.33 0.13 0.14 0.14 0.14 0.36 0 0.2-0.14 0.35-0.14 0.14-0.33 0.14z"/>
	<g id="Clip-Path" clip-path="url(#cp1)">
		<g>
			<path fill-rule="evenodd" class="s0" d="m0.31 4.4c0 0 9.39 3.59 18.48 10.35 9.21 6.84 16.95 15.98 16.95 15.98v-22.88c0 0-1.84-2.68-4.31-4.71-2.29-1.88-5.24-3.13-5.24-3.13l0.31 11.59c0 0-3.42-3.17-7.7-5.95-4.64-3.02-10.17-5.65-10.17-5.65 0-0.03-2.5 0.68-4.72 2.01-1.84 1.1-3.6 2.37-3.6 2.37z"/>
			<path fill-rule="evenodd" class="s1" d="m0.31 40.76l9.24 4.39v-19.75c0 0 5.19 3.08 9.86 7.83 4.72 4.81 8.93 11.29 8.93 11.29 0 0 2.61-1.37 4.62-2.83 1.65-1.18 2.78-2.51 2.78-2.51 0 0-6.31-9.38-19.1-19.43-8.84-6.94-16.64-9.09-16.64-9.09l0.31 30.09z"/>
			<path class="s0" d="m59.76 17.63c-0.86-0.52-2.57-1.16-5.19-1.97q-2.66-0.85-3.31-1.21-1.23-0.63-1.22-1.78-0.01-1.27 1.06-1.81 0.9-0.49 2.69-0.49 2.1 0 3.08 0.75 1.01 0.75 1.4 2.47l0.05 0.22h3.7l-0.03-0.31q-0.32-3.36-2.47-5-2-1.49-5.57-1.49c-2.17 0-3.98 0.5-5.36 1.49-1.54 1.02-2.32 2.5-2.32 4.36q0.01 2.8 2.38 4.24c0.59 0.35 2.09 0.9 4.56 1.69q3.13 0.96 3.78 1.29 1.7 0.83 1.69 2.25 0 1.04-1.12 1.73-1.21 0.68-3.27 0.68-2.3 0-3.41-0.81-1.17-0.87-1.48-3.03l-0.04-0.24h-3.71l0.02 0.29q0.2 3.91 2.8 5.74 2.11 1.46 5.81 1.46c2.46 0 4.55-0.53 5.99-1.58q2.16-1.64 2.16-4.45c0-1.86-0.9-3.44-2.68-4.51z"/>
			<path class="s0" d="m78.35 21.24l-9.38-13.84h-3.63v20.38h3.75v-14.04l9.42 13.92 0.07 0.12h3.56v-20.38h-3.79z"/>
			<path class="s0" d="m99.1 17.63c-0.87-0.52-2.57-1.16-5.2-1.97q-2.66-0.85-3.3-1.21-1.23-0.63-1.23-1.78 0-1.27 1.06-1.81 0.91-0.49 2.7-0.49 2.1 0 3.08 0.75 1.01 0.75 1.4 2.47l0.04 0.22h3.71l-0.04-0.31q-0.31-3.36-2.46-5-2-1.49-5.57-1.49c-2.17 0-3.98 0.5-5.37 1.49-1.53 1.02-2.32 2.5-2.32 4.36q0.01 2.8 2.39 4.24c0.59 0.35 2.08 0.9 4.56 1.69q3.13 0.96 3.78 1.29 1.69 0.83 1.68 2.25 0.01 1.04-1.12 1.73-1.2 0.68-3.26 0.68-2.3 0-3.41-0.81-1.17-0.87-1.49-3.03l-0.03-0.24h-3.71l0.01 0.29c0.13 2.6 1.08 4.53 2.81 5.74q2.1 1.46 5.81 1.46c2.46 0 4.54-0.53 5.98-1.58q2.16-1.64 2.17-4.45c0-1.86-0.9-3.44-2.69-4.51z"/>
			<path class="s0" d="m116.65 14.71q-2.04-2.23-5.39-2.23c-2.23 0-4.07 0.75-5.39 2.22q-2.02 2.16-2.02 5.63 0 3.46 1.99 5.57 2.07 2.25 5.42 2.25 3.35-0.01 5.42-2.25 1.99-2.19 1.99-5.57c0-2.25-0.68-4.16-2.02-5.63zm-8.18 2.34c0.64-0.96 1.55-1.44 2.79-1.44 1.23 0 2.14 0.48 2.79 1.44q0.88 1.29 0.89 3.29c0 1.32-0.3 2.36-0.89 3.25q-0.98 1.45-2.79 1.44-1.81 0.01-2.79-1.43-0.86-1.26-0.86-3.25c0-1.33 0.28-2.45 0.86-3.29z"/>
			<path class="s0" d="m124.3 8.54q-1.1 1.12-1.1 3.09v1.24h-3.16v3.14h3.16v11.77h3.68v-11.77h3.62v-3.14h-3.62v-1.16q0-0.61 0.22-0.83 0.24-0.25 0.74-0.25h2.85v-3.22h-3.3q-2.07 0.01-3.1 1.13z"/>
			<path class="s0" d="m140.99 16.04v-3.17h-3.15v-4.77l-3.68 1.53v3.24h-2.55v3.17h2.55v7.83q0 1.82 0.89 2.82 0.97 1.09 2.92 1.09h2.67v-3.16h-2.14q-0.35 0-0.51-0.16-0.15-0.18-0.14-0.59v-7.83h3.15z"/>
		</g>
	</g>
</svg>